<svg  viewBox="0 0 38 38" fill="none" xmlns="http://www.w3.org/2000/svg">
<path fill-rule="evenodd" clip-rule="evenodd" d="M10.0834 0.666992C10.7147 0.666992 11.2918 1.02366 11.5741 1.5883L12.8816 4.20316C13.3524 5.14478 13.4958 5.41575 13.6702 5.64189C13.845 5.86872 14.0483 6.07207 14.2752 6.24692C14.5013 6.42124 14.7723 6.56471 15.7139 7.03552L18.3288 8.34295C18.8934 8.62527 19.2501 9.20237 19.2501 9.83366C19.2501 10.4649 18.8934 11.042 18.3288 11.3244L15.7139 12.6318C14.7723 13.1026 14.5013 13.2461 14.2752 13.4204C14.0483 13.5952 13.845 13.7986 13.6702 14.0254C13.4958 14.2516 13.3524 14.5225 12.8816 15.4642L11.5741 18.079C11.2918 18.6437 10.7147 19.0003 10.0834 19.0003C9.45213 19.0003 8.87502 18.6437 8.5927 18.079L7.28527 15.4642C6.81446 14.5225 6.671 14.2516 6.49668 14.0254C6.32183 13.7986 6.11848 13.5952 5.89165 13.4204C5.6655 13.2461 5.39453 13.1026 4.45292 12.6318L1.83806 11.3244C1.27342 11.042 0.916748 10.4649 0.916748 9.83366C0.916748 9.20237 1.27342 8.62527 1.83806 8.34295L4.45292 7.03552C5.39453 6.56471 5.6655 6.42124 5.89165 6.24692C6.11848 6.07207 6.32183 5.86872 6.49668 5.64189C6.671 5.41575 6.81446 5.14478 7.28527 4.20316L8.5927 1.5883C8.87502 1.02366 9.45213 0.666992 10.0834 0.666992ZM10.0834 6.06039C9.75804 6.70881 9.48959 7.21912 9.13672 7.67691C8.78703 8.13057 8.38032 8.53727 7.92667 8.88696C7.46888 9.23984 6.95857 9.50829 6.31015 9.83366C6.95857 10.159 7.46888 10.4275 7.92667 10.7804C8.38032 11.13 8.78702 11.5367 9.13672 11.9904C9.48959 12.4482 9.75804 12.9585 10.0834 13.6069C10.4088 12.9585 10.6772 12.4482 11.0301 11.9904C11.3798 11.5367 11.7865 11.13 12.2402 10.7804C12.698 10.4275 13.2083 10.159 13.8567 9.83366C13.2083 9.50829 12.698 9.23984 12.2402 8.88696C11.7865 8.53727 11.3798 8.13057 11.0301 7.67691C10.6772 7.21912 10.4088 6.70881 10.0834 6.06039ZM30.0834 2.33366C31.0039 2.33366 31.7501 3.07985 31.7501 4.00033V6.50032H34.2501C35.1706 6.50032 35.9167 7.24652 35.9167 8.16699C35.9167 9.08747 35.1706 9.83366 34.2501 9.83366H31.7501V12.3337C31.7501 13.2541 31.0039 14.0003 30.0834 14.0003C29.1629 14.0003 28.4167 13.2541 28.4167 12.3337V9.83366H25.9167C24.9963 9.83366 24.2501 9.08747 24.2501 8.16699C24.2501 7.24652 24.9963 6.50032 25.9167 6.50032H28.4167V4.00033C28.4167 3.07985 29.1629 2.33366 30.0834 2.33366ZM27.5834 17.3337C28.2147 17.3337 28.7918 17.6903 29.0741 18.255L30.6593 21.4254C31.1301 22.367 31.2736 22.638 31.4479 22.8641C31.6228 23.0909 31.8261 23.2943 32.053 23.4691C32.2791 23.6435 32.5501 23.7869 33.4917 24.2577L36.6621 25.8429C37.2267 26.1253 37.5834 26.7024 37.5834 27.3337C37.5834 27.9649 37.2267 28.542 36.6621 28.8244L33.4917 30.4096C32.5501 30.8804 32.2791 31.0239 32.053 31.1982C31.8261 31.373 31.6228 31.5764 31.4479 31.8032C31.2736 32.0293 31.1301 32.3003 30.6593 33.2419L29.0741 36.4123C28.7918 36.977 28.2147 37.3337 27.5834 37.3337C26.9521 37.3337 26.375 36.977 26.0927 36.4123L24.5075 33.2419C24.0367 32.3003 23.8932 32.0293 23.7189 31.8032C23.544 31.5764 23.3407 31.373 23.1139 31.1982C22.8877 31.0239 22.6168 30.8804 21.6751 30.4096L18.5047 28.8244C17.9401 28.542 17.5834 27.9649 17.5834 27.3337C17.5834 26.7024 17.9401 26.1253 18.5047 25.8429L21.6751 24.2577C22.6168 23.7869 22.8877 23.6435 23.1139 23.4691C23.3407 23.2943 23.5441 23.0909 23.7189 22.8641C23.8932 22.638 24.0367 22.367 24.5075 21.4254L26.0927 18.255C26.375 17.6903 26.9521 17.3337 27.5834 17.3337ZM27.5834 22.7271L27.4889 22.9161C27.4683 22.9573 27.448 22.998 27.4279 23.0382C27.0447 23.8053 26.755 24.3853 26.3589 24.8991C26.0092 25.3528 25.6025 25.7595 25.1489 26.1092C24.6351 26.5052 24.0551 26.7949 23.288 27.1781C23.2478 27.1982 23.2071 27.2185 23.1659 27.2392L22.9769 27.3337L23.1659 27.4282C23.2071 27.4488 23.2478 27.4691 23.288 27.4892C24.0551 27.8724 24.6351 28.1621 25.1489 28.5581C25.6025 28.9078 26.0092 29.3145 26.3589 29.7682C26.755 30.282 27.0447 30.862 27.4279 31.6292C27.448 31.6693 27.4683 31.71 27.4889 31.7512L27.5834 31.9402L27.6779 31.7512C27.6985 31.71 27.7189 31.6693 27.7389 31.6291C28.1221 30.862 28.4118 30.282 28.8079 29.7682C29.1576 29.3145 29.5643 28.9078 30.0179 28.5581C30.5317 28.1621 31.1117 27.8724 31.8789 27.4892C31.919 27.4691 31.9597 27.4488 32.001 27.4282L32.19 27.3337L32.001 27.2392C31.9597 27.2185 31.9191 27.1982 31.8789 27.1782C31.1117 26.7949 30.5318 26.5052 30.0179 26.1092C29.5643 25.7595 29.1576 25.3528 28.8079 24.8991C28.4118 24.3853 28.1221 23.8054 27.7389 23.0382C27.7189 22.998 27.6985 22.9573 27.6779 22.9161L27.5834 22.7271ZM8.41675 24.0003C9.33722 24.0003 10.0834 24.7465 10.0834 25.667V28.167H12.5834C13.5039 28.167 14.2501 28.9132 14.2501 29.8337C14.2501 30.7541 13.5039 31.5003 12.5834 31.5003H10.0834V34.0003C10.0834 34.9208 9.33722 35.667 8.41675 35.667C7.49627 35.667 6.75008 34.9208 6.75008 34.0003V31.5003H4.25008C3.32961 31.5003 2.58341 30.7541 2.58341 29.8337C2.58341 28.9132 3.32961 28.167 4.25008 28.167H6.75008V25.667C6.75008 24.7465 7.49627 24.0003 8.41675 24.0003Z" fill="#FF861B"/>
</svg>
