<svg  viewBox="0 0 38 38" fill="none" xmlns="http://www.w3.org/2000/svg">
<path fill-rule="evenodd" clip-rule="evenodd" d="M10.0832 0.666992C10.7145 0.666992 11.2916 1.02366 11.5739 1.5883L12.8813 4.20316C13.3521 5.14478 13.4956 5.41575 13.6699 5.64189C13.8448 5.86872 14.0481 6.07207 14.2749 6.24692C14.5011 6.42124 14.772 6.56471 15.7137 7.03552L18.3285 8.34295C18.8932 8.62527 19.2498 9.20237 19.2498 9.83366C19.2498 10.4649 18.8932 11.042 18.3285 11.3244L15.7137 12.6318C14.7721 13.1026 14.5011 13.2461 14.2749 13.4204C14.0481 13.5952 13.8448 13.7986 13.6699 14.0254C13.4956 14.2516 13.3521 14.5225 12.8813 15.4642L11.5739 18.079C11.2916 18.6437 10.7145 19.0003 10.0832 19.0003C9.45188 19.0003 8.87478 18.6437 8.59246 18.079L7.28503 15.4642C6.81422 14.5225 6.67075 14.2516 6.49643 14.0254C6.32159 13.7986 6.11824 13.5952 5.89141 13.4204C5.66526 13.2461 5.39429 13.1026 4.45268 12.6318L1.83781 11.3244C1.27317 11.042 0.916504 10.4649 0.916504 9.83366C0.916504 9.20237 1.27317 8.62527 1.83781 8.34295L4.45268 7.03552C5.39429 6.56471 5.66526 6.42124 5.89141 6.24692C6.11824 6.07207 6.32159 5.86872 6.49643 5.64189C6.67075 5.41575 6.81422 5.14478 7.28503 4.20316L8.59246 1.5883C8.87478 1.02366 9.45188 0.666992 10.0832 0.666992ZM10.0832 6.06039C9.7578 6.70881 9.48935 7.21912 9.13647 7.67691C8.78678 8.13057 8.38008 8.53727 7.92642 8.88696C7.46863 9.23984 6.95832 9.50829 6.3099 9.83366C6.95832 10.159 7.46863 10.4275 7.92642 10.7804C8.38008 11.13 8.78678 11.5367 9.13647 11.9904C9.48935 12.4482 9.7578 12.9585 10.0832 13.6069C10.4085 12.9585 10.677 12.4482 11.0299 11.9904C11.3796 11.5367 11.7863 11.13 12.2399 10.7804C12.6977 10.4275 13.208 10.159 13.8564 9.83366C13.208 9.50829 12.6977 9.23984 12.2399 8.88696C11.7863 8.53727 11.3796 8.13057 11.0299 7.67691C10.677 7.21912 10.4085 6.70881 10.0832 6.06039ZM30.0832 2.33366C31.0036 2.33366 31.7498 3.07985 31.7498 4.00033V6.50032H34.2498C35.1703 6.50032 35.9165 7.24652 35.9165 8.16699C35.9165 9.08747 35.1703 9.83366 34.2498 9.83366H31.7498V12.3337C31.7498 13.2541 31.0036 14.0003 30.0832 14.0003C29.1627 14.0003 28.4165 13.2541 28.4165 12.3337V9.83366H25.9165C24.996 9.83366 24.2498 9.08747 24.2498 8.16699C24.2498 7.24652 24.996 6.50032 25.9165 6.50032H28.4165V4.00033C28.4165 3.07985 29.1627 2.33366 30.0832 2.33366ZM27.5832 17.3337C28.2145 17.3337 28.7916 17.6903 29.0739 18.255L30.6591 21.4254C31.1299 22.367 31.2734 22.638 31.4477 22.8641C31.6225 23.0909 31.8259 23.2943 32.0527 23.4691C32.2789 23.6435 32.5498 23.7869 33.4914 24.2577L36.6619 25.8429C37.2265 26.1253 37.5832 26.7024 37.5832 27.3337C37.5832 27.9649 37.2265 28.542 36.6619 28.8244L33.4914 30.4096C32.5498 30.8804 32.2789 31.0239 32.0527 31.1982C31.8259 31.373 31.6225 31.5764 31.4477 31.8032C31.2734 32.0293 31.1299 32.3003 30.6591 33.2419L29.0739 36.4123C28.7916 36.977 28.2145 37.3337 27.5832 37.3337C26.9519 37.3337 26.3748 36.977 26.0925 36.4123L24.5072 33.2419C24.0364 32.3003 23.893 32.0293 23.7187 31.8032C23.5438 31.5764 23.3405 31.373 23.1136 31.1982C22.8875 31.0239 22.6165 30.8804 21.6749 30.4096L18.5045 28.8244C17.9398 28.542 17.5832 27.9649 17.5832 27.3337C17.5832 26.7024 17.9398 26.1253 18.5045 25.8429L21.6749 24.2577C22.6165 23.7869 22.8875 23.6435 23.1136 23.4691C23.3405 23.2943 23.5438 23.0909 23.7187 22.8641C23.893 22.638 24.0364 22.367 24.5072 21.4254L26.0925 18.255C26.3748 17.6903 26.9519 17.3337 27.5832 17.3337ZM27.5832 22.7271L27.4887 22.9161C27.4681 22.9573 27.4477 22.998 27.4277 23.0382C27.0445 23.8053 26.7548 24.3853 26.3587 24.8991C26.009 25.3528 25.6023 25.7595 25.1486 26.1092C24.6348 26.5052 24.0549 26.7949 23.2877 27.1781C23.2475 27.1982 23.2068 27.2185 23.1656 27.2392L22.9766 27.3337L23.1656 27.4282C23.2068 27.4488 23.2475 27.4691 23.2877 27.4892C24.0549 27.8724 24.6348 28.1621 25.1486 28.5581C25.6023 28.9078 26.009 29.3145 26.3587 29.7682C26.7548 30.282 27.0445 30.862 27.4277 31.6292C27.4477 31.6693 27.4681 31.71 27.4887 31.7512L27.5832 31.9402L27.6777 31.7512C27.6983 31.71 27.7186 31.6693 27.7387 31.6291C28.1219 30.862 28.4116 30.282 28.8076 29.7682C29.1573 29.3145 29.564 28.9078 30.0177 28.5581C30.5315 28.1621 31.1115 27.8724 31.8786 27.4892C31.9188 27.4691 31.9595 27.4488 32.0007 27.4282L32.1897 27.3337L32.0007 27.2392C31.9595 27.2185 31.9188 27.1982 31.8786 27.1782C31.1115 26.7949 30.5315 26.5052 30.0177 26.1092C29.564 25.7595 29.1573 25.3528 28.8076 24.8991C28.4116 24.3853 28.1219 23.8054 27.7387 23.0382C27.7186 22.998 27.6983 22.9573 27.6777 22.9161L27.5832 22.7271ZM8.4165 24.0003C9.33698 24.0003 10.0832 24.7465 10.0832 25.667V28.167H12.5832C13.5036 28.167 14.2498 28.9132 14.2498 29.8337C14.2498 30.7541 13.5036 31.5003 12.5832 31.5003H10.0832V34.0003C10.0832 34.9208 9.33698 35.667 8.4165 35.667C7.49603 35.667 6.74984 34.9208 6.74984 34.0003V31.5003H4.24984C3.32936 31.5003 2.58317 30.7541 2.58317 29.8337C2.58317 28.9132 3.32936 28.167 4.24984 28.167H6.74984V25.667C6.74984 24.7465 7.49603 24.0003 8.4165 24.0003Z" fill="#FF861B"/>
</svg>
