<svg width="38" height="38" viewBox="0 0 38 38" fill="none" xmlns="http://www.w3.org/2000/svg">
<path fill-rule="evenodd" clip-rule="evenodd" d="M24.2501 0.666992C24.9397 0.666992 25.5581 1.09171 25.8057 1.73536L27.77 6.84272C28.2707 8.14446 28.428 8.51958 28.6432 8.82224C28.8592 9.12592 29.1245 9.39124 29.4282 9.60717C29.7308 9.82238 30.1059 9.97971 31.4077 10.4804L36.515 12.4447C37.1587 12.6923 37.5834 13.3107 37.5834 14.0003C37.5834 14.6899 37.1587 15.3083 36.515 15.5559L31.4077 17.5203C30.1059 18.0209 29.7308 18.1783 29.4282 18.3935C29.1245 18.6094 28.8592 18.8747 28.6432 19.1784C28.428 19.4811 28.2707 19.8562 27.77 21.1579L25.8057 26.2653C25.5581 26.9089 24.9397 27.3337 24.2501 27.3337C23.5605 27.3337 22.9421 26.9089 22.6945 26.2653L20.7301 21.1579C20.2295 19.8562 20.0721 19.4811 19.8569 19.1784C19.641 18.8747 19.3757 18.6094 19.072 18.3935C18.7693 18.1783 18.3942 18.0209 17.0925 17.5203L11.9851 15.5559C11.3415 15.3083 10.9167 14.6899 10.9167 14.0003C10.9167 13.3107 11.3415 12.6923 11.9851 12.4447L17.0925 10.4804C18.3942 9.97971 18.7693 9.82238 19.072 9.60717C19.3757 9.39124 19.641 9.12591 19.8569 8.82224C20.0721 8.51958 20.2295 8.14446 20.7301 6.84272L22.6945 1.73536C22.9421 1.09171 23.5605 0.666992 24.2501 0.666992ZM24.2501 6.97646L23.8413 8.03932C23.8192 8.09678 23.7974 8.15348 23.7759 8.20946C23.3699 9.26656 23.0633 10.0651 22.5735 10.7539C22.1416 11.3612 21.611 11.8919 21.0036 12.3238C20.3148 12.8135 19.5163 13.1202 18.4592 13.5262C18.4032 13.5477 18.3465 13.5694 18.2891 13.5915L17.2262 14.0003L18.2891 14.4091C18.3465 14.4312 18.4032 14.453 18.4592 14.4745C19.5163 14.8805 20.3148 15.1871 21.0036 15.6769C21.611 16.1088 22.1417 16.6394 22.5735 17.2468C23.0633 17.9356 23.37 18.7341 23.7759 19.7912C23.7974 19.8472 23.8192 19.9039 23.8413 19.9613L24.2501 21.0242L24.6589 19.9613C24.681 19.9039 24.7028 19.8472 24.7242 19.7912C25.1302 18.7341 25.4369 17.9356 25.9266 17.2468C26.3585 16.6394 26.8892 16.1088 27.4965 15.6769C28.1853 15.1871 28.9838 14.8805 30.0409 14.4745C30.0969 14.453 30.1536 14.4312 30.2111 14.4091L31.274 14.0003L30.2111 13.5915C30.1536 13.5694 30.0969 13.5477 30.0409 13.5262C28.9838 13.1202 28.1853 12.8135 27.4965 12.3238C26.8892 11.8919 26.3585 11.3612 25.9266 10.7539C25.4369 10.0651 25.1302 9.26656 24.7242 8.20946C24.7027 8.15348 24.681 8.09678 24.6589 8.03932L24.2501 6.97646ZM10.0834 19.0003C10.7147 19.0003 11.2918 19.357 11.5741 19.9216L12.8816 22.5365C13.3524 23.4781 13.4958 23.7491 13.6702 23.9752C13.845 24.2021 14.0484 24.4054 14.2752 24.5803C14.5013 24.7546 14.7723 24.898 15.7139 25.3688L18.3288 26.6763C18.8934 26.9586 19.2501 27.5357 19.2501 28.167C19.2501 28.7983 18.8934 29.3754 18.3288 29.6577L15.7139 30.9651C14.7723 31.4359 14.5013 31.5794 14.2752 31.7537C14.0483 31.9286 13.845 32.1319 13.6702 32.3588C13.4958 32.5849 13.3524 32.8559 12.8816 33.7975L11.5741 36.4123C11.2918 36.977 10.7147 37.3337 10.0834 37.3337C9.45213 37.3337 8.87502 36.977 8.5927 36.4123L7.28527 33.7975C6.81446 32.8559 6.671 32.5849 6.49668 32.3588C6.32183 32.1319 6.11848 31.9286 5.89165 31.7537C5.6655 31.5794 5.39453 31.4359 4.45292 30.9651L1.83806 29.6577C1.27342 29.3754 0.916748 28.7983 0.916748 28.167C0.916748 27.5357 1.27342 26.9586 1.83806 26.6763L4.45292 25.3688C5.39453 24.898 5.6655 24.7546 5.89165 24.5803C6.11848 24.4054 6.32183 24.2021 6.49668 23.9752C6.671 23.7491 6.81446 23.4781 7.28527 22.5365L8.5927 19.9216C8.87502 19.357 9.45213 19.0003 10.0834 19.0003ZM10.0834 24.3937C9.75804 25.0421 9.48959 25.5525 9.13672 26.0102C8.78703 26.4639 8.38033 26.8706 7.92667 27.2203C7.46888 27.5732 6.95857 27.8416 6.31015 28.167C6.95857 28.4924 7.46888 28.7608 7.92667 29.1137C8.38032 29.4634 8.78702 29.8701 9.13672 30.3237C9.48959 30.7815 9.75804 31.2918 10.0834 31.9403C10.4088 31.2918 10.6772 30.7815 11.0301 30.3237C11.3798 29.8701 11.7865 29.4634 12.2402 29.1137C12.698 28.7608 13.2083 28.4924 13.8567 28.167C13.2083 27.8416 12.698 27.5732 12.2402 27.2203C11.7865 26.8706 11.3798 26.4639 11.0301 26.0102C10.6772 25.5525 10.4088 25.0421 10.0834 24.3937Z" fill="#FF861B"/>
</svg>
