<svg width="38" height="38" viewBox="0 0 38 38" fill="none" xmlns="http://www.w3.org/2000/svg">
<path fill-rule="evenodd" clip-rule="evenodd" d="M6.75008 0.666992C7.67056 0.666992 8.41675 1.41318 8.41675 2.33366V4.83366H10.9167C11.8372 4.83366 12.5834 5.57985 12.5834 6.50032C12.5834 7.4208 11.8372 8.16699 10.9167 8.16699H8.41675V10.667C8.41675 11.5875 7.67056 12.3337 6.75008 12.3337C5.82961 12.3337 5.08341 11.5875 5.08341 10.667V8.16699H2.58341C1.66294 8.16699 0.916748 7.4208 0.916748 6.50032C0.916748 5.57985 1.66294 4.83366 2.58341 4.83366H5.08341V2.33366C5.08341 1.41318 5.82961 0.666992 6.75008 0.666992ZM20.9167 2.33366C21.6064 2.33366 22.2248 2.75837 22.4723 3.40203L25.3626 10.9168C25.8633 12.2185 26.0206 12.5937 26.2358 12.8963C26.4518 13.2 26.7171 13.4653 27.0208 13.6812C27.3234 13.8965 27.6985 14.0538 29.0003 14.5545L36.515 17.4447C37.1587 17.6923 37.5834 18.3107 37.5834 19.0003C37.5834 19.6899 37.1587 20.3083 36.515 20.5559L29.0003 23.4462C27.6985 23.9469 27.3234 24.1042 27.0208 24.3194C26.7171 24.5353 26.4518 24.8007 26.2358 25.1043C26.0206 25.407 25.8633 25.7821 25.3626 27.0838L22.4723 34.5986C22.2248 35.2423 21.6064 35.667 20.9167 35.667C20.2271 35.667 19.6087 35.2423 19.3612 34.5986L16.4709 27.0839C15.9702 25.7821 15.8129 25.407 15.5977 25.1043C15.3817 24.8007 15.1164 24.5353 14.8127 24.3194C14.5101 24.1042 14.135 23.9469 12.8332 23.4462L5.31845 20.5559C4.6748 20.3083 4.25008 19.6899 4.25008 19.0003C4.25008 18.3107 4.6748 17.6923 5.31845 17.4447L12.8332 14.5545C14.135 14.0538 14.5101 13.8965 14.8127 13.6812C15.1164 13.4653 15.3817 13.2 15.5977 12.8963C15.8129 12.5937 15.9702 12.2185 16.4709 10.9168L19.3612 3.40203C19.6087 2.75837 20.2271 2.33366 20.9167 2.33366ZM20.9167 8.64312L19.582 12.1134C19.5599 12.1708 19.5381 12.2276 19.5166 12.2835C19.1107 13.3406 18.804 14.1392 18.3143 14.828C17.8824 15.4353 17.3517 15.966 16.7444 16.3978C16.0556 16.8876 15.2571 17.1943 14.2 17.6002C14.144 17.6217 14.0873 17.6435 14.0298 17.6656L10.5595 19.0003L14.0298 20.335C14.0873 20.3571 14.144 20.3789 14.2 20.4004C15.2571 20.8064 16.0556 21.113 16.7444 21.6028C17.3517 22.0347 17.8824 22.5653 18.3143 23.1727C18.804 23.8615 19.1107 24.66 19.5166 25.7171C19.5381 25.7731 19.5599 25.8298 19.582 25.8873L20.9167 29.3575L22.2515 25.8873C22.2736 25.8298 22.2953 25.7731 22.3168 25.7171C22.7228 24.66 23.0295 23.8615 23.5192 23.1727C23.9511 22.5653 24.4818 22.0347 25.0891 21.6028C25.7779 21.113 26.5764 20.8064 27.6335 20.4004C27.6895 20.3789 27.7462 20.3571 27.8037 20.335L31.274 19.0003L27.8037 17.6656C27.7462 17.6435 27.6895 17.6217 27.6335 17.6002C26.5764 17.1943 25.7779 16.8876 25.0891 16.3978C24.4818 15.966 23.9511 15.4353 23.5192 14.828C23.0295 14.1392 22.7228 13.3406 22.3168 12.2835C22.2953 12.2276 22.2736 12.1708 22.2515 12.1134L20.9167 8.64312ZM6.75008 25.667C7.67056 25.667 8.41675 26.4132 8.41675 27.3337V29.8337H10.9167C11.8372 29.8337 12.5834 30.5798 12.5834 31.5003C12.5834 32.4208 11.8372 33.167 10.9167 33.167H8.41675V35.667C8.41675 36.5875 7.67056 37.3337 6.75008 37.3337C5.82961 37.3337 5.08341 36.5875 5.08341 35.667V33.167H2.58341C1.66294 33.167 0.916748 32.4208 0.916748 31.5003C0.916748 30.5798 1.66294 29.8337 2.58341 29.8337H5.08341V27.3337C5.08341 26.4132 5.82961 25.667 6.75008 25.667Z" fill="#FF861B"/>
</svg>
