<?xml version="1.0" encoding="utf-8"?>
<svg viewBox="54.5728 1.1289 107.2284 79.1558" width="107.2284" height="79.1558" xmlns="http://www.w3.org/2000/svg">
  <defs>
    <clipPath id="clip0_82_76">
      <rect width="210" height="132" fill="white" transform="translate(0.75)"/>
    </clipPath>
  </defs>
  <g clip-path="url(#clip0_82_76)">
    <path d="M118.21 55.3912C118.314 54.0035 118.129 52.6094 117.667 51.2963C117.206 49.9832 116.477 48.7794 115.527 47.7606C114.577 46.7418 113.426 45.9298 112.147 45.3756C110.868 44.8214 109.488 44.5369 108.093 44.5401C106.699 44.5432 105.32 44.8339 104.043 45.3938C102.767 45.9538 101.62 46.7709 100.674 47.794C99.729 48.8171 99.0058 50.0241 98.55 51.3393C98.0942 52.6544 97.9157 54.0494 98.0256 55.4366C104.723 54.5432 111.509 54.5279 118.21 55.3912Z" fill="white"/>
    <path d="M146.091 16.7641C137.51 8.21943 126.281 2.82773 114.235 1.46811C102.189 0.108483 90.0367 2.86113 79.7596 9.27723C69.4825 15.6933 61.6869 25.3944 57.6437 36.7986C53.6005 48.2029 53.5483 60.6376 57.4957 72.0752C57.5447 72.2202 57.6284 72.351 57.7396 72.4564C57.8508 72.5618 57.9861 72.6384 58.1337 72.6797C58.2813 72.721 58.4368 72.7257 58.5867 72.6934C58.7366 72.6611 58.8763 72.5927 58.9937 72.4943C66.0638 66.6215 74.135 62.0657 82.8217 59.0446C82.171 55.3536 82.3374 51.5653 83.3093 47.9453C84.2812 44.3253 86.0349 40.9613 88.4476 38.0893C90.8603 35.2172 93.8735 32.9067 97.2758 31.3197C100.678 29.7327 104.387 28.9077 108.143 28.9025C111.898 28.8973 115.61 29.7121 119.016 31.2897C122.423 32.8674 125.443 35.1696 127.863 38.035C130.284 40.9004 132.047 44.2595 133.029 47.8768C134.011 51.4941 134.188 55.282 133.547 58.9747C142.241 61.9709 150.325 66.5017 157.414 72.3511C157.532 72.4487 157.672 72.5162 157.821 72.5478C157.971 72.5794 158.127 72.5742 158.274 72.5326C158.421 72.491 158.556 72.4143 158.668 72.3091C158.779 72.2038 158.862 72.0732 158.912 71.9285C162.161 62.4574 162.681 52.2667 160.415 42.515C158.149 32.7632 153.186 23.8415 146.091 16.7641Z" fill="#05D3BF"/>
    <path d="M115.28 61.7899C113.913 63.157 112.181 64.1041 110.29 64.5188C108.399 64.9336 106.429 64.7986 104.613 64.1299C102.797 63.4613 101.211 62.2869 100.043 60.7462C98.8757 59.2054 98.1754 57.3629 98.0253 55.437C92.8481 56.1236 87.754 57.3324 82.8213 59.0448C83.8714 65.0012 86.9936 70.397 91.6384 74.2822C96.2832 78.1675 102.153 80.293 108.213 80.2847C114.274 80.2763 120.138 78.1346 124.772 74.2366C129.406 70.3386 132.513 64.9342 133.547 58.9749C128.57 57.2615 123.431 56.0608 118.21 55.3916C118.036 57.8064 116.996 60.0778 115.28 61.7899Z" fill="#FF861B"/>
  </g>
</svg>