<svg viewBox="0 0 170 24" fill="none" xmlns="http://www.w3.org/2000/svg">
<path d="M15.697 23.0657C13.6291 23.0667 11.6073 22.4544 9.88736 21.3062C8.16743 20.1581 6.82665 18.5256 6.03458 16.6153C5.24251 14.7051 5.03475 12.6028 5.43757 10.5745C5.84039 8.54612 6.8357 6.6828 8.29761 5.22017C9.75951 3.75754 11.6223 2.76132 13.6505 2.35751C15.6786 1.9537 17.781 2.16044 19.6916 2.95159C21.6022 3.74273 23.2353 5.08274 24.3843 6.80212C25.5333 8.5215 26.1466 10.543 26.1466 12.611C26.1432 15.3818 25.0414 18.0383 23.0826 19.9981C21.1238 21.9578 18.4679 23.061 15.697 23.0657Z" fill="white"/>
<path d="M45.2577 4.96311C48.547 4.96311 50.4672 6.48712 50.4672 8.98142V9.02714C50.4672 11.6459 48.2854 13.2182 45.2272 13.2182H41.6865C41.6712 13.9141 41.6433 14.605 41.5798 15.2857H44.7903L50.7009 23.203H53.5254L47.2668 14.8768C50.4672 14.2951 52.7964 12.3165 52.7964 8.94078V8.88236C52.8117 8.14206 52.6806 7.40603 52.4108 6.71648C52.141 6.02693 51.7378 5.39742 51.2242 4.86405C49.9542 3.59404 47.9349 2.83203 45.433 2.83203H40.0024C40.2564 3.528 40.4723 4.23667 40.6679 4.95549L45.2577 4.96311Z" fill="white"/>
<path d="M74.7751 4.90156C77.6834 4.90156 79.2861 6.20967 79.2861 8.21883V8.27724C79.2861 10.6649 77.3659 11.9146 74.5998 11.9146H70.3097C70.3097 12.1482 70.325 12.3768 70.325 12.6105C70.325 13.0601 70.3021 13.5046 70.292 13.9542H75.0062C78.5622 13.9542 80.4189 15.2242 80.4189 17.4467V17.5051C80.4189 19.7759 78.4987 21.145 75.4151 21.145H69.6925C69.5884 21.8384 69.4639 22.5242 69.3369 23.21H75.3567C79.8093 23.21 82.7507 21.145 82.7507 17.6499V17.5915C82.7507 14.7975 80.7999 13.4005 78.3844 12.674C79.9846 11.973 81.6127 10.6064 81.6127 7.95721V7.89878C81.623 7.29543 81.5125 6.69612 81.2879 6.13605C81.0633 5.57598 80.729 5.06645 80.3046 4.6374C79.1413 3.50201 77.3049 2.83398 74.9706 2.83398H69.4842C69.6011 3.51132 69.7052 4.20052 69.7967 4.90156H74.7751Z" fill="white"/>
<path d="M98.4116 2.83398H96.1104V23.21H98.4116V2.83398Z" fill="white"/>
<path d="M118.351 23.21H120.68V4.95744H127.52V2.83398H111.508V4.95744H118.351V23.21Z" fill="white"/>
<path d="M145.336 2.68652L136.049 23.2099H138.406L140.822 17.825L146.382 5.36624L151.912 17.825L154.299 23.2099H156.776L147.489 2.68652H145.336Z" fill="white"/>
</svg>
