<svg width="982" height="1240" viewBox="0 0 982 1240" fill="none" xmlns="http://www.w3.org/2000/svg">
<path fill-rule="evenodd" clip-rule="evenodd" d="M488.25 466.5C590.699 466.5 673.75 383.449 673.75 281C673.75 178.551 590.699 95.5 488.25 95.5C385.801 95.5 302.75 178.551 302.75 281C302.75 383.449 385.801 466.5 488.25 466.5ZM488.25 467C590.975 467 674.25 383.725 674.25 281C674.25 178.275 590.975 95 488.25 95C385.525 95 302.25 178.275 302.25 281C302.25 383.725 385.525 467 488.25 467Z" fill="#CC3266"/>
<path fill-rule="evenodd" clip-rule="evenodd" d="M490.75 980.5C761.37 980.5 980.75 761.12 980.75 490.5C980.75 219.88 761.37 0.5 490.75 0.5C220.13 0.5 0.75 219.88 0.75 490.5C0.75 761.12 220.13 980.5 490.75 980.5ZM490.75 981C761.646 981 981.25 761.396 981.25 490.5C981.25 219.604 761.646 0 490.75 0C219.854 0 0.25 219.604 0.25 490.5C0.25 761.396 219.854 981 490.75 981Z" fill="#05D3BF"/>
<path fill-rule="evenodd" clip-rule="evenodd" d="M489.25 754.5C675.646 754.5 826.75 603.396 826.75 417C826.75 230.604 675.646 79.5 489.25 79.5C302.854 79.5 151.75 230.604 151.75 417C151.75 603.396 302.854 754.5 489.25 754.5ZM489.25 755C675.922 755 827.25 603.672 827.25 417C827.25 230.328 675.922 79 489.25 79C302.578 79 151.25 230.328 151.25 417C151.25 603.672 302.578 755 489.25 755Z" fill="#E2EDEC"/>
<path fill-rule="evenodd" clip-rule="evenodd" d="M68.5 819C68.5 1050.82 256.205 1238.75 487.75 1238.75C719.295 1238.75 907 1050.82 907 819H907.5C907.5 1051.1 719.572 1239.25 487.75 1239.25C255.928 1239.25 68 1051.1 68 819H68.5Z" fill="#CC3266"/>
</svg>
