<svg width="1146" height="833" viewBox="0 0 1146 833" fill="none" xmlns="http://www.w3.org/2000/svg">
<path fill-rule="evenodd" clip-rule="evenodd" d="M977.274 710.606C1080.78 635.302 1144.75 531.314 1144.75 416.5C1144.75 301.686 1080.78 197.698 977.274 122.394C873.767 47.0913 730.747 0.5 572.75 0.5C414.753 0.5 271.733 47.0913 168.226 122.394C64.7172 197.698 0.75 301.686 0.75 416.5C0.75 531.314 64.7172 635.302 168.226 710.606C271.733 785.909 414.753 832.5 572.75 832.5C730.747 832.5 873.767 785.909 977.274 710.606ZM572.75 833C888.933 833 1145.25 646.527 1145.25 416.5C1145.25 186.473 888.933 0 572.75 0C256.567 0 0.25 186.473 0.25 416.5C0.25 646.527 256.567 833 572.75 833Z" fill="#05D3BF"/>
<path fill-rule="evenodd" clip-rule="evenodd" d="M663.699 567.062C716.9 528.495 749.75 475.256 749.75 416.5C749.75 357.744 716.9 304.505 663.699 265.938C610.5 227.37 536.98 203.5 455.75 203.5C374.52 203.5 301 227.37 247.801 265.938C194.6 304.505 161.75 357.744 161.75 416.5C161.75 475.256 194.6 528.495 247.801 567.062C301 605.63 374.52 629.5 455.75 629.5C536.98 629.5 610.5 605.63 663.699 567.062ZM455.75 630C618.398 630 750.25 534.413 750.25 416.5C750.25 298.587 618.398 203 455.75 203C293.102 203 161.25 298.587 161.25 416.5C161.25 534.413 293.102 630 455.75 630Z" fill="#E2EDEC"/>
<path fill-rule="evenodd" clip-rule="evenodd" d="M414.75 752.5C629.106 752.5 802.75 602.003 802.75 416.5C802.75 230.997 629.106 80.5 414.75 80.5C200.394 80.5 26.75 230.997 26.75 416.5C26.75 602.003 200.394 752.5 414.75 752.5ZM414.75 753C629.313 753 803.25 602.344 803.25 416.5C803.25 230.656 629.313 80 414.75 80C200.187 80 26.25 230.656 26.25 416.5C26.25 602.344 200.187 753 414.75 753Z" fill="#E2EDEC"/>
<path fill-rule="evenodd" clip-rule="evenodd" d="M289.75 501.5C336.694 501.5 374.75 463.444 374.75 416.5C374.75 369.556 336.694 331.5 289.75 331.5C242.806 331.5 204.75 369.556 204.75 416.5C204.75 463.444 242.806 501.5 289.75 501.5ZM289.75 502C336.97 502 375.25 463.72 375.25 416.5C375.25 369.28 336.97 331 289.75 331C242.53 331 204.25 369.28 204.25 416.5C204.25 463.72 242.53 502 289.75 502Z" fill="#CC3266"/>
</svg>
