<svg width="1233" height="1232" viewBox="0 0 1233 1232" fill="none" xmlns="http://www.w3.org/2000/svg">
<path fill-rule="evenodd" clip-rule="evenodd" d="M616.25 661.5C744.103 661.5 847.75 557.631 847.75 429.5C847.75 301.369 744.103 197.5 616.25 197.5C488.397 197.5 384.75 301.369 384.75 429.5C384.75 557.631 488.397 661.5 616.25 661.5ZM616.25 662C744.38 662 848.25 557.906 848.25 429.5C848.25 301.094 744.38 197 616.25 197C488.12 197 384.25 301.094 384.25 429.5C384.25 557.906 488.12 662 616.25 662Z" fill="#CC3266"/>
<path fill-rule="evenodd" clip-rule="evenodd" d="M616.25 1231.5C956.181 1231.5 1231.75 955.931 1231.75 616C1231.75 276.069 956.181 0.5 616.25 0.5C276.319 0.5 0.75 276.069 0.75 616C0.75 955.931 276.319 1231.5 616.25 1231.5ZM616.25 1232C956.457 1232 1232.25 956.207 1232.25 616C1232.25 275.793 956.457 0 616.25 0C276.043 0 0.25 275.793 0.25 616C0.25 956.207 276.043 1232 616.25 1232Z" fill="#05D3BF"/>
<path fill-rule="evenodd" clip-rule="evenodd" d="M616.25 886.5C813.692 886.5 973.75 726.442 973.75 529C973.75 331.558 813.692 171.5 616.25 171.5C418.808 171.5 258.75 331.558 258.75 529C258.75 726.442 418.808 886.5 616.25 886.5ZM616.25 887C813.968 887 974.25 726.718 974.25 529C974.25 331.282 813.968 171 616.25 171C418.532 171 258.25 331.282 258.25 529C258.25 726.718 418.532 887 616.25 887Z" fill="#E2EDEC"/>
</svg>
