<svg width="667" height="666" viewBox="0 0 667 666" fill="none" xmlns="http://www.w3.org/2000/svg">
<path fill-rule="evenodd" clip-rule="evenodd" d="M333.75 634.5C482.316 634.5 602.75 514.511 602.75 366.5C602.75 218.489 482.316 98.5 333.75 98.5C185.184 98.5 64.75 218.489 64.75 366.5C64.75 514.511 185.184 634.5 333.75 634.5ZM333.75 635C482.591 635 603.25 514.788 603.25 366.5C603.25 218.212 482.591 98 333.75 98C184.909 98 64.25 218.212 64.25 366.5C64.25 514.788 184.909 635 333.75 635Z" fill="#05D3BF"/>
<path fill-rule="evenodd" clip-rule="evenodd" d="M333.25 665.5C516.885 665.5 665.75 516.635 665.75 333C665.75 149.365 516.885 0.5 333.25 0.5C149.615 0.5 0.75 149.365 0.75 333C0.75 516.635 149.615 665.5 333.25 665.5ZM333.25 666C517.161 666 666.25 516.911 666.25 333C666.25 149.089 517.161 0 333.25 0C149.339 0 0.25 149.089 0.25 333C0.25 516.911 149.339 666 333.25 666Z" fill="#E2EDEC"/>
</svg>
