<svg xmlns="http://www.w3.org/2000/svg" id="Capa_2" data-name="Capa 2" viewBox="0 0 150 150"><defs><style>      .cls-1 {        fill: #fff;      }    </style></defs><g id="Capa_1-2" data-name="Capa 1"><path class="cls-1" d="m149.09,96.54c-2.5-6.02-9.42-8.88-15.44-6.37-2.38.99-4.23,2.68-5.49,4.71l-30.77-12.7c1.47-4.58,1.54-9.58-.03-14.43l30.75-12.79c3,4.84,9.11,6.95,14.54,4.69,6.02-2.5,8.88-9.42,6.37-15.44-2.5-6.02-9.42-8.88-15.44-6.37-5.42,2.25-8.24,8.08-6.92,13.62l-30.75,12.79c-2.33-4.53-5.93-8.01-10.21-10.2l12.7-30.77c2.33.55,4.84.42,7.21-.57,6.02-2.5,8.88-9.42,6.37-15.44-2.5-6.02-9.42-8.88-15.44-6.37-6.02,2.5-8.88,9.42-6.37,15.44.99,2.38,2.68,4.24,4.72,5.49l-12.7,30.77c-4.58-1.47-9.58-1.54-14.43.03l-12.79-30.75c4.83-3,6.95-9.11,4.69-14.53-2.5-6.02-9.42-8.88-15.44-6.37-6.02,2.5-8.88,9.42-6.37,15.44,2.25,5.42,8.08,8.24,13.61,6.92l12.79,30.75c-4.53,2.33-8.01,5.92-10.19,10.21l-30.77-12.7c.55-2.33.42-4.83-.57-7.21-2.5-6.02-9.42-8.88-15.44-6.37-6.02,2.5-8.88,9.42-6.37,15.44,2.5,6.02,9.42,8.88,15.44,6.37,2.38-.99,4.24-2.68,5.49-4.72l30.77,12.7c-1.47,4.58-1.54,9.58.03,14.43l-30.75,12.79c-3-4.84-9.11-6.95-14.54-4.7-6.02,2.5-8.88,9.42-6.37,15.44,2.5,6.02,9.42,8.88,15.44,6.37,5.42-2.25,8.24-8.08,6.92-13.61l30.75-12.79c2.33,4.53,5.93,8.01,10.21,10.2l-12.7,30.77c-2.33-.55-4.84-.42-7.22.57-6.02,2.5-8.88,9.42-6.37,15.44,2.5,6.02,9.42,8.88,15.44,6.37,6.02-2.5,8.88-9.42,6.37-15.44-.99-2.38-2.68-4.24-4.71-5.49l12.7-30.77c4.58,1.47,9.58,1.54,14.43-.03l12.79,30.75c-4.83,3-6.95,9.11-4.69,14.54,2.5,6.02,9.42,8.88,15.44,6.37,6.02-2.5,8.88-9.42,6.37-15.44-2.25-5.42-8.08-8.24-13.61-6.92l-12.79-30.75c4.53-2.33,8.01-5.92,10.19-10.21l30.77,12.7c-.55,2.33-.42,4.84.57,7.21,2.5,6.02,9.42,8.88,15.44,6.37,6.02-2.5,8.88-9.42,6.37-15.44Z"></path></g></svg>