<svg width="211" height="132" viewBox="0 0 211 132" fill="none" xmlns="http://www.w3.org/2000/svg">
<g clip-path="url(#clip0_82_76)">
<path d="M15.7509 130.714C12.9014 130.716 10.1154 129.874 7.74545 128.295C5.37547 126.716 3.52793 124.472 2.4365 121.845C1.34507 119.219 1.05878 116.328 1.61385 113.539C2.16892 110.75 3.54041 108.188 5.55484 106.177C7.56928 104.166 10.1362 102.796 12.9309 102.241C15.7255 101.685 18.6225 101.97 21.2552 103.057C23.888 104.145 26.1383 105.988 27.7216 108.352C29.3048 110.716 30.1499 113.496 30.1499 116.339C30.1453 120.149 28.627 123.802 25.9278 126.496C23.2287 129.191 19.569 130.708 15.7509 130.714Z" fill="white"/>
<path d="M56.4842 105.824C61.0167 105.824 63.6627 107.919 63.6627 111.349V111.412C63.6627 115.013 60.6562 117.174 56.4422 117.174H51.5632C51.5422 118.131 51.5037 119.081 51.4162 120.017H55.8402L63.9847 130.904H67.8767L59.2527 119.455C63.6627 118.655 66.8722 115.935 66.8722 111.293V111.213C66.8932 110.195 66.7126 109.183 66.3408 108.235C65.9691 107.287 65.4134 106.421 64.7057 105.688C62.9557 103.941 60.1732 102.894 56.7257 102.894H49.2427C49.5927 103.851 49.8902 104.825 50.1597 105.813L56.4842 105.824Z" fill="white"/>
<path d="M97.1576 105.739C101.165 105.739 103.374 107.538 103.374 110.301V110.381C103.374 113.664 100.728 115.382 96.9161 115.382H91.0046C91.0046 115.704 91.0256 116.018 91.0256 116.339C91.0256 116.957 90.9941 117.569 90.9801 118.187H97.4761C102.376 118.187 104.935 119.933 104.935 122.989V123.069C104.935 126.192 102.289 128.074 98.0396 128.074H90.1541C90.0106 129.028 89.8391 129.971 89.6641 130.914H97.9591C104.095 130.914 108.148 128.074 108.148 123.268V123.188C108.148 119.346 105.46 117.425 102.131 116.427C104.336 115.463 106.58 113.584 106.58 109.941V109.861C106.594 109.031 106.441 108.207 106.132 107.437C105.822 106.667 105.362 105.966 104.777 105.376C103.174 103.815 100.644 102.896 97.4271 102.896H89.8671C90.0281 103.828 90.1716 104.775 90.2976 105.739H97.1576Z" fill="white"/>
<path d="M129.729 102.896H126.558V130.914H129.729V102.896Z" fill="white"/>
<path d="M157.203 130.914H160.413V105.816H169.838V102.896H147.774V105.816H157.203V130.914Z" fill="white"/>
<path d="M194.387 102.694L181.591 130.914H184.839L188.168 123.51L195.829 106.379L203.449 123.51L206.739 130.914H210.151L197.355 102.694H194.387Z" fill="white"/>
<path d="M118.21 55.3912C118.314 54.0035 118.129 52.6094 117.667 51.2963C117.206 49.9832 116.477 48.7794 115.527 47.7606C114.577 46.7418 113.426 45.9298 112.147 45.3756C110.868 44.8214 109.488 44.5369 108.093 44.5401C106.699 44.5432 105.32 44.8339 104.043 45.3938C102.767 45.9538 101.62 46.7709 100.674 47.794C99.729 48.8171 99.0058 50.0241 98.55 51.3393C98.0942 52.6544 97.9157 54.0494 98.0256 55.4366C104.723 54.5432 111.509 54.5279 118.21 55.3912Z" fill="white"/>
<path d="M146.091 16.7641C137.51 8.21943 126.281 2.82773 114.235 1.46811C102.189 0.108483 90.0367 2.86113 79.7596 9.27723C69.4825 15.6933 61.6869 25.3944 57.6437 36.7986C53.6005 48.2029 53.5483 60.6376 57.4957 72.0752C57.5447 72.2202 57.6284 72.351 57.7396 72.4564C57.8508 72.5618 57.9861 72.6384 58.1337 72.6797C58.2813 72.721 58.4368 72.7257 58.5867 72.6934C58.7366 72.6611 58.8763 72.5927 58.9937 72.4943C66.0638 66.6215 74.135 62.0657 82.8217 59.0446C82.171 55.3536 82.3374 51.5653 83.3093 47.9453C84.2812 44.3253 86.0349 40.9613 88.4476 38.0893C90.8603 35.2172 93.8735 32.9067 97.2758 31.3197C100.678 29.7327 104.387 28.9077 108.143 28.9025C111.898 28.8973 115.61 29.7121 119.016 31.2897C122.423 32.8674 125.443 35.1696 127.863 38.035C130.284 40.9004 132.047 44.2595 133.029 47.8768C134.011 51.4941 134.188 55.282 133.547 58.9747C142.241 61.9709 150.325 66.5017 157.414 72.3511C157.532 72.4487 157.672 72.5162 157.821 72.5478C157.971 72.5794 158.127 72.5742 158.274 72.5326C158.421 72.491 158.556 72.4143 158.668 72.3091C158.779 72.2038 158.862 72.0732 158.912 71.9285C162.161 62.4574 162.681 52.2667 160.415 42.515C158.149 32.7632 153.186 23.8415 146.091 16.7641Z" fill="#05D3BF"/>
<path d="M115.28 61.7899C113.913 63.157 112.181 64.1041 110.29 64.5188C108.399 64.9336 106.429 64.7986 104.613 64.1299C102.797 63.4613 101.211 62.2869 100.043 60.7462C98.8757 59.2054 98.1754 57.3629 98.0253 55.437C92.8481 56.1236 87.754 57.3324 82.8213 59.0448C83.8714 65.0012 86.9936 70.397 91.6384 74.2822C96.2832 78.1675 102.153 80.293 108.213 80.2847C114.274 80.2763 120.138 78.1346 124.772 74.2366C129.406 70.3386 132.513 64.9342 133.547 58.9749C128.57 57.2615 123.431 56.0608 118.21 55.3916C118.036 57.8064 116.996 60.0778 115.28 61.7899Z" fill="#FF861B"/>
</g>
<defs>
<clipPath id="clip0_82_76">
<rect width="210" height="132" fill="white" transform="translate(0.75)"/>
</clipPath>
</defs>
</svg>
