<svg width="70" height="18" viewBox="0 0 70 18" fill="none" xmlns="http://www.w3.org/2000/svg">
<path d="M0.805438 17V0.199999H3.49344L6.97344 7.784L10.4534 0.199999H13.1414V17H10.7174V5.048L7.98144 11.048H5.96544L3.22944 5.072V17H0.805438ZM20.2841 17.288C19.3401 17.288 18.5481 17.128 17.9081 16.808C17.2681 16.472 16.7881 16.032 16.4681 15.488C16.1481 14.928 15.9881 14.32 15.9881 13.664C15.9881 12.496 16.4121 11.584 17.2601 10.928C18.1241 10.272 19.3401 9.944 20.9081 9.944H23.9801V9.68C23.9801 7.888 23.1481 6.992 21.4841 6.992C20.7961 6.992 20.2121 7.144 19.7321 7.448C19.2681 7.736 18.9561 8.208 18.7961 8.864H16.2521C16.3801 7.616 16.9161 6.632 17.8601 5.912C18.8201 5.176 20.0281 4.808 21.4841 4.808C23.2441 4.808 24.5241 5.24 25.3241 6.104C26.1241 6.968 26.5241 8.16 26.5241 9.68V17H24.3641L24.1481 15.248H23.9801C23.6281 15.808 23.1881 16.288 22.6601 16.688C22.1321 17.088 21.3401 17.288 20.2841 17.288ZM20.7641 15.152C21.8041 15.152 22.5801 14.84 23.0921 14.216C23.6201 13.576 23.9081 12.768 23.9561 11.792H21.1721C20.2601 11.792 19.6121 11.944 19.2281 12.248C18.8601 12.536 18.6761 12.944 18.6761 13.472C18.6761 14 18.8601 14.416 19.2281 14.72C19.6121 15.008 20.1241 15.152 20.7641 15.152ZM30.4027 17V14.792H33.3067V8.096C33.3067 7.568 33.0507 7.304 32.5387 7.304H30.6427V5.096H33.4987C34.1547 5.096 34.6907 5.288 35.1067 5.672C35.5227 6.04 35.7307 6.56 35.7307 7.232V7.52H35.8507C36.0267 6.624 36.4027 5.952 36.9787 5.504C37.5707 5.04 38.4267 4.808 39.5467 4.808H41.3947V7.496H38.8027C37.8587 7.496 37.1307 7.824 36.6187 8.48C36.1067 9.136 35.8507 9.92 35.8507 10.832V14.792H39.5467V17H30.4027ZM50.3133 17.288C49.2093 17.288 48.2173 17.032 47.3373 16.52C46.4733 16.008 45.7933 15.288 45.2973 14.36C44.8013 13.416 44.5533 12.312 44.5533 11.048C44.5533 9.784 44.8013 8.688 45.2973 7.76C45.8093 6.832 46.4973 6.112 47.3613 5.6C48.2253 5.072 49.2093 4.808 50.3133 4.808C51.8333 4.808 53.0573 5.192 53.9853 5.96C54.9293 6.712 55.5293 7.752 55.7853 9.08H53.1213C52.9613 8.504 52.6333 8.048 52.1373 7.712C51.6573 7.376 51.0413 7.208 50.2893 7.208C49.7453 7.208 49.2253 7.352 48.7293 7.64C48.2493 7.928 47.8573 8.36 47.5533 8.936C47.2653 9.496 47.1213 10.2 47.1213 11.048C47.1213 11.88 47.2653 12.584 47.5533 13.16C47.8573 13.736 48.2493 14.176 48.7293 14.48C49.2253 14.768 49.7453 14.912 50.2893 14.912C51.0573 14.912 51.6733 14.744 52.1373 14.408C52.6013 14.072 52.9293 13.608 53.1213 13.016H55.7853C55.4653 14.328 54.8413 15.368 53.9133 16.136C52.9853 16.904 51.7853 17.288 50.3133 17.288ZM63.4559 17.288C62.5119 17.288 61.7199 17.128 61.0799 16.808C60.4399 16.472 59.9599 16.032 59.6399 15.488C59.3199 14.928 59.1599 14.32 59.1599 13.664C59.1599 12.496 59.5839 11.584 60.4319 10.928C61.2959 10.272 62.5119 9.944 64.0799 9.944H67.1519V9.68C67.1519 7.888 66.3199 6.992 64.6559 6.992C63.9679 6.992 63.3839 7.144 62.9039 7.448C62.4399 7.736 62.1279 8.208 61.9679 8.864H59.4239C59.5519 7.616 60.0879 6.632 61.0319 5.912C61.9919 5.176 63.1999 4.808 64.6559 4.808C66.4159 4.808 67.6959 5.24 68.4959 6.104C69.2959 6.968 69.6959 8.16 69.6959 9.68V17H67.5359L67.3199 15.248H67.1519C66.7999 15.808 66.3599 16.288 65.8319 16.688C65.3039 17.088 64.5119 17.288 63.4559 17.288ZM63.9359 15.152C64.9759 15.152 65.7519 14.84 66.2639 14.216C66.7919 13.576 67.0799 12.768 67.1279 11.792H64.3439C63.4319 11.792 62.7839 11.944 62.3999 12.248C62.0319 12.536 61.8479 12.944 61.8479 13.472C61.8479 14 62.0319 14.416 62.3999 14.72C62.7839 15.008 63.2959 15.152 63.9359 15.152Z" fill="white"/>
</svg>
