<svg width="1370" height="995" viewBox="0 0 1370 995" fill="none" xmlns="http://www.w3.org/2000/svg">
<path fill-rule="evenodd" clip-rule="evenodd" d="M1168.47 848.881C1292.25 758.92 1368.75 634.681 1368.75 497.5C1368.75 360.319 1292.25 236.08 1168.47 146.119C1044.69 56.1576 873.675 0.5 684.75 0.5C495.825 0.5 324.805 56.1576 201.029 146.119C77.253 236.08 0.75 360.319 0.75 497.5C0.75 634.681 77.253 758.92 201.029 848.881C324.805 938.842 495.825 994.5 684.75 994.5C873.675 994.5 1044.69 938.842 1168.47 848.881ZM684.75 995C1062.79 995 1369.25 772.262 1369.25 497.5C1369.25 222.738 1062.79 0 684.75 0C306.711 0 0.25 222.738 0.25 497.5C0.25 772.262 306.711 995 684.75 995Z" fill="#05D3BF"/>
<path fill-rule="evenodd" clip-rule="evenodd" d="M793.712 677.761C857.408 631.592 896.75 567.854 896.75 497.5C896.75 427.146 857.408 363.408 793.712 317.239C730.016 271.071 641.996 242.5 544.75 242.5C447.504 242.5 359.484 271.071 295.788 317.239C232.092 363.408 192.75 427.146 192.75 497.5C192.75 567.854 232.092 631.592 295.788 677.761C359.484 723.929 447.504 752.5 544.75 752.5C641.996 752.5 730.016 723.929 793.712 677.761ZM544.75 753C739.43 753 897.25 638.609 897.25 497.5C897.25 356.391 739.43 242 544.75 242C350.07 242 192.25 356.391 192.25 497.5C192.25 638.609 350.07 753 544.75 753Z" fill="#E2EDEC"/>
<path fill-rule="evenodd" clip-rule="evenodd" d="M495.75 899.5C752.08 899.5 959.75 719.454 959.75 497.5C959.75 275.546 752.08 95.5 495.75 95.5C239.42 95.5 31.75 275.546 31.75 497.5C31.75 719.454 239.42 899.5 495.75 899.5ZM495.75 900C752.286 900 960.25 719.795 960.25 497.5C960.25 275.205 752.286 95 495.75 95C239.214 95 31.25 275.205 31.25 497.5C31.25 719.795 239.214 900 495.75 900Z" fill="#E2EDEC"/>
<path fill-rule="evenodd" clip-rule="evenodd" d="M346.25 599.5C402.305 599.5 447.75 553.835 447.75 497.5C447.75 441.165 402.305 395.5 346.25 395.5C290.195 395.5 244.75 441.165 244.75 497.5C244.75 553.835 290.195 599.5 346.25 599.5ZM346.25 600C402.583 600 448.25 554.109 448.25 497.5C448.25 440.891 402.583 395 346.25 395C289.917 395 244.25 440.891 244.25 497.5C244.25 554.109 289.917 600 346.25 600Z" fill="#CC3266"/>
</svg>
