<svg width="1394" height="1411" viewBox="0 0 1394 1411" fill="none" xmlns="http://www.w3.org/2000/svg">
<path fill-rule="evenodd" clip-rule="evenodd" d="M696.25 592.5C820.789 592.5 921.75 491.317 921.75 366.5C921.75 241.683 820.789 140.5 696.25 140.5C571.711 140.5 470.75 241.683 470.75 366.5C470.75 491.317 571.711 592.5 696.25 592.5ZM696.25 593C821.066 593 922.25 491.592 922.25 366.5C922.25 241.408 821.066 140 696.25 140C571.434 140 470.25 241.408 470.25 366.5C470.25 491.592 571.434 593 696.25 593Z" fill="#CC3266"/>
<path fill-rule="evenodd" clip-rule="evenodd" d="M694.75 1162.5C1015.63 1162.5 1275.75 902.377 1275.75 581.5C1275.75 260.623 1015.63 0.5 694.75 0.5C373.873 0.5 113.75 260.623 113.75 581.5C113.75 902.377 373.873 1162.5 694.75 1162.5ZM694.75 1163C1015.9 1163 1276.25 902.654 1276.25 581.5C1276.25 260.346 1015.9 0 694.75 0C373.596 0 113.25 260.346 113.25 581.5C113.25 902.654 373.596 1163 694.75 1163Z" fill="#05D3BF"/>
<path fill-rule="evenodd" clip-rule="evenodd" d="M692.25 782.5C875.885 782.5 1024.75 633.635 1024.75 450C1024.75 266.365 875.885 117.5 692.25 117.5C508.615 117.5 359.75 266.365 359.75 450C359.75 633.635 508.615 782.5 692.25 782.5ZM692.25 783C876.161 783 1025.25 633.911 1025.25 450C1025.25 266.089 876.161 117 692.25 117C508.339 117 359.25 266.089 359.25 450C359.25 633.911 508.339 783 692.25 783Z" fill="#E2EDEC"/>
<path fill-rule="evenodd" clip-rule="evenodd" d="M0.5 713C0.5 1097.8 312.222 1409.75 696.75 1409.75C1081.28 1409.75 1393 1097.8 1393 713H1393.5C1393.5 1098.08 1081.55 1410.25 696.75 1410.25C311.945 1410.25 0 1098.08 0 713H0.5Z" fill="#CC3266"/>
</svg>
